<svg width="16" height="16" viewBox="0 0 16 16" fill="none" xmlns="http://www.w3.org/2000/svg">
<mask id="mask0_4_2" style="mask-type:alpha" maskUnits="userSpaceOnUse" x="2" y="0" width="12" height="16">
<path d="M2.13333 11.0636H6.82532V13.4096C6.82532 14.7052 5.77499 15.7556 4.47933 15.7556C3.18366 15.7556 2.13333 14.7052 2.13333 13.4096V11.0636Z" fill="#00FFE1"/>
<path d="M2.13333 5.63853H11.5173C12.813 5.63853 13.8633 6.68886 13.8633 7.98452C13.8633 9.28023 12.813 10.3305 11.5173 10.3305H2.13333V5.63853Z" fill="#00FFE1"/>
<path d="M2.13333 4.05923C2.13333 1.9352 3.8552 0.213333 5.97923 0.213333H11.5173C12.813 0.213333 13.8633 1.26367 13.8633 2.55933C13.8633 3.85499 12.813 4.90533 11.5173 4.90533H2.13333V4.05923Z" fill="#00FFE1"/>
</mask>
<g mask="url(#mask0_4_2)">
<g filter="url(#filter0_d_4_2)">
<mask id="mask1_4_2" style="mask-type:alpha" maskUnits="userSpaceOnUse" x="-12" y="-39" width="70" height="91">
<path d="M-11.291 -7.17938H43.5532C51.1257 -7.17938 57.2642 -1.04076 57.2642 6.53167C57.2642 14.1043 51.1257 20.2428 43.5532 20.2428H-11.291V-7.17938Z" fill="#00FFE1"/>
</mask>
<g mask="url(#mask1_4_2)">
<path d="M-9.85225 -62.5057C0.889563 -72.9896 28.1282 -62.5057 28.1282 -62.5057H-9.85225C-12.4906 -59.9308 -14.1338 -56.091 -14.1338 -50.5202C-14.1338 -22.2685 16.4694 -11.995 16.4694 7.69609C16.4694 26.9713 -12.8572 38.8629 -14.0936 65.0555H28.1282C28.1282 65.0555 -14.1338 94.1633 -14.1338 66.7671C-14.1338 66.1894 -14.1202 65.6196 -14.0936 65.0555H-32.7145L-29.0712 -62.5057H-9.85225Z" fill="#00FFE1"/>
</g>
</g>
<g filter="url(#filter1_f_4_2)">
</g>
<g filter="url(#filter2_f_4_2)">
<path d="M-19.8604 66.8027C-5.66214 66.8027 5.84782 55.2927 5.84782 41.0945C5.84782 26.8962 -5.66214 15.3863 -19.8604 15.3863C-34.0586 15.3863 -45.5686 26.8962 -45.5686 41.0945C-45.5686 55.2927 -34.0586 66.8027 -19.8604 66.8027Z" fill="#00FFE1"/>
</g>
</g>
<defs>
<filter id="filter0_d_4_2" x="-13.291" y="-50.8866" width="63.4193" height="114.836" filterUnits="userSpaceOnUse" color-interpolation-filters="sRGB">
<feFlood flood-opacity="0" result="BackgroundImageFix"/>
<feColorMatrix in="SourceAlpha" type="matrix" values="0 0 0 0 0 0 0 0 0 0 0 0 0 0 0 0 0 0 127 0" result="hardAlpha"/>
<feOffset dx="10"/>
<feGaussianBlur stdDeviation="6"/>
<feComposite in2="hardAlpha" operator="out"/>
<feColorMatrix type="matrix" values="0 0 0 0 0 0 0 0 0 0 0 0 0 0 0 0 0 0 0.25 0"/>
<feBlend mode="normal" in2="BackgroundImageFix" result="effect1_dropShadow_4_2"/>
<feBlend mode="normal" in="SourceGraphic" in2="effect1_dropShadow_4_2" result="shape"/>
</filter>
<filter id="filter1_f_4_2" x="-65.5686" y="10.2399" width="91.4164" height="91.4164" filterUnits="userSpaceOnUse" color-interpolation-filters="sRGB">
<feFlood flood-opacity="0" result="BackgroundImageFix"/>
<feBlend mode="normal" in="SourceGraphic" in2="BackgroundImageFix" result="shape"/>
<feGaussianBlur stdDeviation="10" result="effect1_foregroundBlur_4_2"/>
</filter>
<filter id="filter2_f_4_2" x="-65.5686" y="-4.61372" width="91.4164" height="91.4164" filterUnits="userSpaceOnUse" color-interpolation-filters="sRGB">
<feFlood flood-opacity="0" result="BackgroundImageFix"/>
<feBlend mode="normal" in="SourceGraphic" in2="BackgroundImageFix" result="shape"/>
<feGaussianBlur stdDeviation="10" result="effect1_foregroundBlur_4_2"/>
</filter>
</defs>
</svg>
