<svg width="24" height="24" viewBox="0 0 24 24" fill="none" xmlns="http://www.w3.org/2000/svg">
<mask id="mask0_1_26" style="mask-type:alpha" maskUnits="userSpaceOnUse" x="5" y="1" width="15" height="20">
<path d="M5 14.875H11V17.875C11 19.5319 9.65686 20.875 8 20.875C6.34314 20.875 5 19.5319 5 17.875V14.875Z" fill="#00FFE1"/>
<path d="M5 7.93759H17C18.6569 7.93759 20 9.28073 20 10.9376C20 12.5945 18.6569 13.9376 17 13.9376H5V7.93759Z" fill="#00FFE1"/>
<path d="M5 5.91803C5 3.20188 7.20188 1 9.91803 1H17C18.6569 1 20 2.34314 20 4C20 5.65686 18.6569 7 17 7H5V5.91803Z" fill="#00FFE1"/>
</mask>
<g mask="url(#mask0_1_26)">
<g filter="url(#filter0_d_1_26)">
<mask id="mask1_1_26" style="mask-type:alpha" maskUnits="userSpaceOnUse" x="-13" y="-49" width="89" height="117">
<path d="M-12.1667 -8.45363H57.9667C67.6502 -8.45363 75.5 -0.603718 75.5 9.07971C75.5 18.7634 67.6502 26.6132 57.9667 26.6132H-12.1667V-8.45363Z" fill="#00FFE1"/>
</mask>
<g mask="url(#mask1_1_26)">
<path d="M-10.3268 -79.2035C3.40954 -92.61 38.2417 -79.2035 38.2417 -79.2035H-10.3268C-13.7007 -75.9108 -15.802 -71.0005 -15.802 -63.8768C-15.802 -27.7492 23.3326 -14.6117 23.3326 10.5687C23.3326 35.2174 -14.1695 50.424 -15.7505 83.9184H38.2417C38.2417 83.9184 -15.802 121.141 -15.802 86.1072C-15.802 85.3685 -15.7846 84.6399 -15.7505 83.9184H-39.5625L-34.9035 -79.2035H-10.3268Z" fill="#00FFE1"/>
</g>
</g>
<g filter="url(#filter1_f_1_26)">
</g>
<g filter="url(#filter2_f_1_26)">
<path d="M-23.125 86.1528C-4.96864 86.1528 9.75 71.4341 9.75 53.2778C9.75 35.1214 -4.96864 20.4028 -23.125 20.4028C-41.2814 20.4028 -56 35.1214 -56 53.2778C-56 71.4341 -41.2814 86.1528 -23.125 86.1528Z" fill="#00FFE1"/>
</g>
</g>
<defs>
<filter id="filter0_d_1_26" x="-14.1667" y="-61" width="74.4083" height="140.158" filterUnits="userSpaceOnUse" color-interpolation-filters="sRGB">
<feFlood flood-opacity="0" result="BackgroundImageFix"/>
<feColorMatrix in="SourceAlpha" type="matrix" values="0 0 0 0 0 0 0 0 0 0 0 0 0 0 0 0 0 0 127 0" result="hardAlpha"/>
<feOffset dx="10"/>
<feGaussianBlur stdDeviation="6"/>
<feComposite in2="hardAlpha" operator="out"/>
<feColorMatrix type="matrix" values="0 0 0 0 0 0 0 0 0 0 0 0 0 0 0 0 0 0 0.25 0"/>
<feBlend mode="normal" in2="BackgroundImageFix" result="effect1_dropShadow_1_26"/>
<feBlend mode="normal" in="SourceGraphic" in2="effect1_dropShadow_1_26" result="shape"/>
</filter>
<filter id="filter1_f_1_26" x="-76" y="19.3972" width="105.75" height="105.75" filterUnits="userSpaceOnUse" color-interpolation-filters="sRGB">
<feFlood flood-opacity="0" result="BackgroundImageFix"/>
<feBlend mode="normal" in="SourceGraphic" in2="BackgroundImageFix" result="shape"/>
<feGaussianBlur stdDeviation="10" result="effect1_foregroundBlur_1_26"/>
</filter>
<filter id="filter2_f_1_26" x="-76" y="0.402771" width="105.75" height="105.75" filterUnits="userSpaceOnUse" color-interpolation-filters="sRGB">
<feFlood flood-opacity="0" result="BackgroundImageFix"/>
<feBlend mode="normal" in="SourceGraphic" in2="BackgroundImageFix" result="shape"/>
<feGaussianBlur stdDeviation="10" result="effect1_foregroundBlur_1_26"/>
</filter>
</defs>
</svg>
